<mxfile host="Electron" agent="Mozilla/5.0 (Windows NT 10.0; Win64; x64) AppleWebKit/537.36 (KHTML, like Gecko) draw.io/22.1.21 Chrome/120.0.6099.109 Electron/28.1.0 Safari/537.36" modified="2024-12-05T07:05:21.399Z" version="22.1.21" etag="WMnof55LsHnrv-GZ1J6g" type="device">
  <diagram id="C5RBs43oDa-KdzZeNtuy" name="Page-1">
    <mxGraphModel dx="1276" dy="606" grid="1" gridSize="10" guides="1" tooltips="1" connect="1" arrows="1" fold="1" page="1" pageScale="1" pageWidth="827" pageHeight="1169" math="0" shadow="0">
      <root>
        <mxCell id="WIyWlLk6GJQsqaUBKTNV-0" />
        <mxCell id="WIyWlLk6GJQsqaUBKTNV-1" parent="WIyWlLk6GJQsqaUBKTNV-0" />
        <mxCell id="vbGwbBUcuy8wxPZ8sT2K-0" value="" style="edgeStyle=orthogonalEdgeStyle;rounded=0;orthogonalLoop=1;jettySize=auto;html=1;" edge="1" parent="WIyWlLk6GJQsqaUBKTNV-1" source="LU5P4YlEtu4sABiCGrMD-0" target="LU5P4YlEtu4sABiCGrMD-1">
          <mxGeometry relative="1" as="geometry" />
        </mxCell>
        <mxCell id="LU5P4YlEtu4sABiCGrMD-0" value="" style="strokeWidth=2;html=1;shape=mxgraph.flowchart.start_2;whiteSpace=wrap;" parent="WIyWlLk6GJQsqaUBKTNV-1" vertex="1">
          <mxGeometry x="245" y="20" width="40" height="40" as="geometry" />
        </mxCell>
        <mxCell id="LU5P4YlEtu4sABiCGrMD-4" value="" style="edgeStyle=orthogonalEdgeStyle;rounded=0;orthogonalLoop=1;jettySize=auto;html=1;" parent="WIyWlLk6GJQsqaUBKTNV-1" source="LU5P4YlEtu4sABiCGrMD-1" target="LU5P4YlEtu4sABiCGrMD-2" edge="1">
          <mxGeometry relative="1" as="geometry" />
        </mxCell>
        <mxCell id="LU5P4YlEtu4sABiCGrMD-1" value="Danh sách địa chỉ chi nhánh" style="rounded=1;whiteSpace=wrap;html=1;" parent="WIyWlLk6GJQsqaUBKTNV-1" vertex="1">
          <mxGeometry x="220" y="100" width="90" height="40" as="geometry" />
        </mxCell>
        <mxCell id="LU5P4YlEtu4sABiCGrMD-11" value="" style="edgeStyle=orthogonalEdgeStyle;rounded=0;orthogonalLoop=1;jettySize=auto;html=1;" parent="WIyWlLk6GJQsqaUBKTNV-1" source="LU5P4YlEtu4sABiCGrMD-2" target="LU5P4YlEtu4sABiCGrMD-6" edge="1">
          <mxGeometry relative="1" as="geometry" />
        </mxCell>
        <mxCell id="LU5P4YlEtu4sABiCGrMD-2" value="Chọn xoá địa chỉ" style="rounded=1;whiteSpace=wrap;html=1;" parent="WIyWlLk6GJQsqaUBKTNV-1" vertex="1">
          <mxGeometry x="215" y="180" width="100" height="40" as="geometry" />
        </mxCell>
        <mxCell id="LU5P4YlEtu4sABiCGrMD-8" style="edgeStyle=orthogonalEdgeStyle;rounded=0;orthogonalLoop=1;jettySize=auto;html=1;entryX=0.5;entryY=0;entryDx=0;entryDy=0;" parent="WIyWlLk6GJQsqaUBKTNV-1" source="LU5P4YlEtu4sABiCGrMD-6" target="LU5P4YlEtu4sABiCGrMD-7" edge="1">
          <mxGeometry relative="1" as="geometry" />
        </mxCell>
        <mxCell id="LU5P4YlEtu4sABiCGrMD-9" value="Có" style="edgeLabel;html=1;align=center;verticalAlign=middle;resizable=0;points=[];" parent="LU5P4YlEtu4sABiCGrMD-8" vertex="1" connectable="0">
          <mxGeometry x="-0.4951" relative="1" as="geometry">
            <mxPoint x="-10" y="-15" as="offset" />
          </mxGeometry>
        </mxCell>
        <mxCell id="LU5P4YlEtu4sABiCGrMD-22" style="edgeStyle=orthogonalEdgeStyle;rounded=0;orthogonalLoop=1;jettySize=auto;html=1;entryX=0.5;entryY=0;entryDx=0;entryDy=0;" parent="WIyWlLk6GJQsqaUBKTNV-1" source="LU5P4YlEtu4sABiCGrMD-6" target="LU5P4YlEtu4sABiCGrMD-21" edge="1">
          <mxGeometry relative="1" as="geometry" />
        </mxCell>
        <mxCell id="LU5P4YlEtu4sABiCGrMD-23" value="Không" style="edgeLabel;html=1;align=center;verticalAlign=middle;resizable=0;points=[];" parent="LU5P4YlEtu4sABiCGrMD-22" vertex="1" connectable="0">
          <mxGeometry x="-0.5082" y="-1" relative="1" as="geometry">
            <mxPoint x="-10" y="-14" as="offset" />
          </mxGeometry>
        </mxCell>
        <mxCell id="LU5P4YlEtu4sABiCGrMD-6" value="Xác nhận" style="rhombus;whiteSpace=wrap;html=1;" parent="WIyWlLk6GJQsqaUBKTNV-1" vertex="1">
          <mxGeometry x="227.5" y="250" width="75" height="70" as="geometry" />
        </mxCell>
        <mxCell id="LU5P4YlEtu4sABiCGrMD-16" value="" style="edgeStyle=orthogonalEdgeStyle;rounded=0;orthogonalLoop=1;jettySize=auto;html=1;" parent="WIyWlLk6GJQsqaUBKTNV-1" source="LU5P4YlEtu4sABiCGrMD-7" target="LU5P4YlEtu4sABiCGrMD-12" edge="1">
          <mxGeometry relative="1" as="geometry" />
        </mxCell>
        <mxCell id="LU5P4YlEtu4sABiCGrMD-7" value="Xoá" style="rounded=1;whiteSpace=wrap;html=1;" parent="WIyWlLk6GJQsqaUBKTNV-1" vertex="1">
          <mxGeometry x="350" y="330" width="100" height="40" as="geometry" />
        </mxCell>
        <mxCell id="LU5P4YlEtu4sABiCGrMD-14" style="edgeStyle=orthogonalEdgeStyle;rounded=0;orthogonalLoop=1;jettySize=auto;html=1;entryX=0.5;entryY=0;entryDx=0;entryDy=0;" parent="WIyWlLk6GJQsqaUBKTNV-1" source="LU5P4YlEtu4sABiCGrMD-12" target="LU5P4YlEtu4sABiCGrMD-13" edge="1">
          <mxGeometry relative="1" as="geometry" />
        </mxCell>
        <mxCell id="LU5P4YlEtu4sABiCGrMD-15" value="Sai" style="edgeLabel;html=1;align=center;verticalAlign=middle;resizable=0;points=[];" parent="LU5P4YlEtu4sABiCGrMD-14" vertex="1" connectable="0">
          <mxGeometry x="-0.2837" relative="1" as="geometry">
            <mxPoint x="-3" y="-15" as="offset" />
          </mxGeometry>
        </mxCell>
        <mxCell id="LU5P4YlEtu4sABiCGrMD-18" style="edgeStyle=orthogonalEdgeStyle;rounded=0;orthogonalLoop=1;jettySize=auto;html=1;entryX=0.5;entryY=0;entryDx=0;entryDy=0;" parent="WIyWlLk6GJQsqaUBKTNV-1" source="LU5P4YlEtu4sABiCGrMD-12" target="LU5P4YlEtu4sABiCGrMD-17" edge="1">
          <mxGeometry relative="1" as="geometry" />
        </mxCell>
        <mxCell id="LU5P4YlEtu4sABiCGrMD-19" value="Được" style="edgeLabel;html=1;align=center;verticalAlign=middle;resizable=0;points=[];" parent="LU5P4YlEtu4sABiCGrMD-18" vertex="1" connectable="0">
          <mxGeometry x="-0.1765" y="-1" relative="1" as="geometry">
            <mxPoint x="-29" y="-16" as="offset" />
          </mxGeometry>
        </mxCell>
        <mxCell id="LU5P4YlEtu4sABiCGrMD-12" value="" style="rhombus;whiteSpace=wrap;html=1;" parent="WIyWlLk6GJQsqaUBKTNV-1" vertex="1">
          <mxGeometry x="362.5" y="400" width="75" height="70" as="geometry" />
        </mxCell>
        <mxCell id="LU5P4YlEtu4sABiCGrMD-28" style="edgeStyle=orthogonalEdgeStyle;rounded=0;orthogonalLoop=1;jettySize=auto;html=1;" parent="WIyWlLk6GJQsqaUBKTNV-1" source="LU5P4YlEtu4sABiCGrMD-13" target="LU5P4YlEtu4sABiCGrMD-25" edge="1">
          <mxGeometry relative="1" as="geometry" />
        </mxCell>
        <mxCell id="LU5P4YlEtu4sABiCGrMD-13" value="Thông báo xoá thất bại" style="rounded=1;whiteSpace=wrap;html=1;" parent="WIyWlLk6GJQsqaUBKTNV-1" vertex="1">
          <mxGeometry x="250" y="480" width="100" height="40" as="geometry" />
        </mxCell>
        <mxCell id="LU5P4YlEtu4sABiCGrMD-29" value="" style="edgeStyle=orthogonalEdgeStyle;rounded=0;orthogonalLoop=1;jettySize=auto;html=1;" parent="WIyWlLk6GJQsqaUBKTNV-1" source="LU5P4YlEtu4sABiCGrMD-17" target="LU5P4YlEtu4sABiCGrMD-20" edge="1">
          <mxGeometry relative="1" as="geometry" />
        </mxCell>
        <mxCell id="LU5P4YlEtu4sABiCGrMD-17" value="Thông&amp;nbsp; báo xoá thành công" style="rounded=1;whiteSpace=wrap;html=1;" parent="WIyWlLk6GJQsqaUBKTNV-1" vertex="1">
          <mxGeometry x="470" y="480" width="100" height="40" as="geometry" />
        </mxCell>
        <mxCell id="LU5P4YlEtu4sABiCGrMD-20" value="Lấy dữ liệu mới" style="rounded=1;whiteSpace=wrap;html=1;" parent="WIyWlLk6GJQsqaUBKTNV-1" vertex="1">
          <mxGeometry x="470" y="560" width="100" height="40" as="geometry" />
        </mxCell>
        <mxCell id="LU5P4YlEtu4sABiCGrMD-21" value="Huỷ" style="rounded=1;whiteSpace=wrap;html=1;" parent="WIyWlLk6GJQsqaUBKTNV-1" vertex="1">
          <mxGeometry x="70" y="370" width="100" height="40" as="geometry" />
        </mxCell>
        <mxCell id="LU5P4YlEtu4sABiCGrMD-25" value="" style="strokeWidth=2;html=1;shape=mxgraph.flowchart.start_2;whiteSpace=wrap;" parent="WIyWlLk6GJQsqaUBKTNV-1" vertex="1">
          <mxGeometry x="245" y="560" width="40" height="40" as="geometry" />
        </mxCell>
        <mxCell id="LU5P4YlEtu4sABiCGrMD-26" style="edgeStyle=orthogonalEdgeStyle;rounded=0;orthogonalLoop=1;jettySize=auto;html=1;entryX=0;entryY=0.5;entryDx=0;entryDy=0;entryPerimeter=0;exitX=0.5;exitY=1;exitDx=0;exitDy=0;" parent="WIyWlLk6GJQsqaUBKTNV-1" source="LU5P4YlEtu4sABiCGrMD-21" target="LU5P4YlEtu4sABiCGrMD-25" edge="1">
          <mxGeometry relative="1" as="geometry" />
        </mxCell>
        <mxCell id="LU5P4YlEtu4sABiCGrMD-30" style="edgeStyle=orthogonalEdgeStyle;rounded=0;orthogonalLoop=1;jettySize=auto;html=1;entryX=1;entryY=0.5;entryDx=0;entryDy=0;entryPerimeter=0;" parent="WIyWlLk6GJQsqaUBKTNV-1" source="LU5P4YlEtu4sABiCGrMD-20" target="LU5P4YlEtu4sABiCGrMD-25" edge="1">
          <mxGeometry relative="1" as="geometry" />
        </mxCell>
      </root>
    </mxGraphModel>
  </diagram>
</mxfile>
